{"asset":{"version":"2.0","generator":"Blockbench 4.1.1 glTF exporter"},"scenes":[{"nodes":[11],"name":"blockbench_export"}],"scene":0,"nodes":[{"rotation":[0.020887057977031574,0.001238481242215493,-0.014155905374514244,0.9996808527306627],"translation":[-0.11543993138007458,-0.3460674654477942,0.1424217509571969],"name":"cube","mesh":0},{"translation":[0.5928668652134519,0.08624696061120596,0.7838339714175468],"name":"hand","children":[0]},{"rotation":[0.3826834323650898,0,0,0.9238795325112867],"translation":[0.5,0.52158625,0.698248125],"name":"cube","mesh":1},{"translation":[-0.5,-0.5,-0.5],"name":"megazing","children":[2]},{"translation":[0.06078,0.09964875,0.126445625],"name":"cube","mesh":2},{"translation":[-0.5,-0.5,-0.5],"name":"bolt","children":[4]},{"translation":[0.265625,-0.4375,0.515625],"name":"AK","children":[3,5]},{"translation":[0.234375,0.9375,-0.015625],"name":"right","children":[1,6]},{"rotation":[0.01341493713040007,0.044307603888380835,-0.10838073263805179,0.9930309625043404],"translation":[-0.27223816440387505,-0.0679568234159671,-0.5202251124175097],"name":"cube","mesh":3},{"rotation":[0.037584344535285384,-0.21315140986521292,-0.16953202249987687,0.9614638770465723],"translation":[0.1022375381370342,0.8804086163573075,0.8451916632845025],"name":"left","children":[8]},{"name":"All","children":[7,9]},{"children":[10]}],"bufferViews":[{"buffer":0,"byteOffset":0,"byteLength":288,"target":34962,"byteStride":12},{"buffer":0,"byteOffset":288,"byteLength":288,"target":34962,"byteStride":12},{"buffer":0,"byteOffset":576,"byteLength":192,"target":34962,"byteStride":8},{"buffer":0,"byteOffset":768,"byteLength":72,"target":34963},{"buffer":0,"byteOffset":840,"byteLength":288,"target":34962,"byteStride":12},{"buffer":0,"byteOffset":1128,"byteLength":288,"target":34962,"byteStride":12},{"buffer":0,"byteOffset":1416,"byteLength":192,"target":34962,"byteStride":8},{"buffer":0,"byteOffset":1608,"byteLength":72,"target":34963},{"buffer":0,"byteOffset":1680,"byteLength":288,"target":34962,"byteStride":12},{"buffer":0,"byteOffset":1968,"byteLength":288,"target":34962,"byteStride":12},{"buffer":0,"byteOffset":2256,"byteLength":192,"target":34962,"byteStride":8},{"buffer":0,"byteOffset":2448,"byteLength":72,"target":34963},{"buffer":0,"byteOffset":2520,"byteLength":288,"target":34962,"byteStride":12},{"buffer":0,"byteOffset":2808,"byteLength":288,"target":34962,"byteStride":12},{"buffer":0,"byteOffset":3096,"byteLength":192,"target":34962,"byteStride":8},{"buffer":0,"byteOffset":3288,"byteLength":72,"target":34963},{"buffer":0,"byteOffset":3360,"byteLength":116},{"buffer":0,"byteOffset":3476,"byteLength":464},{"buffer":0,"byteOffset":3940,"byteLength":92},{"buffer":0,"byteOffset":4032,"byteLength":276},{"buffer":0,"byteOffset":4308,"byteLength":4},{"buffer":0,"byteOffset":4312,"byteLength":12},{"buffer":0,"byteOffset":4324,"byteLength":140},{"buffer":0,"byteOffset":4464,"byteLength":560},{"buffer":0,"byteOffset":5024,"byteLength":112},{"buffer":0,"byteOffset":5136,"byteLength":336},{"buffer":0,"byteOffset":5472,"byteLength":24},{"buffer":0,"byteOffset":5496,"byteLength":96},{"buffer":0,"byteOffset":5592,"byteLength":48},{"buffer":0,"byteOffset":5640,"byteLength":144},{"buffer":0,"byteOffset":5784,"byteLength":68},{"buffer":0,"byteOffset":5852,"byteLength":272},{"buffer":0,"byteOffset":6124,"byteLength":132},{"buffer":0,"byteOffset":6256,"byteLength":396},{"buffer":0,"byteOffset":6652,"byteLength":56},{"buffer":0,"byteOffset":6708,"byteLength":224},{"buffer":0,"byteOffset":6932,"byteLength":72},{"buffer":0,"byteOffset":7004,"byteLength":216},{"buffer":0,"byteOffset":7220,"byteLength":32},{"buffer":0,"byteOffset":7252,"byteLength":96},{"buffer":0,"byteOffset":7348,"byteLength":16},{"buffer":0,"byteOffset":7364,"byteLength":64},{"buffer":0,"byteOffset":7428,"byteLength":24},{"buffer":0,"byteOffset":7452,"byteLength":72}],"buffers":[{"byteLength":7524,"uri":"data:application/octet-stream;base64,"}],"accessors":[{"bufferView":0,"componentType":5126,"count":24,"max":[-0.11812499910593033,-0.09449999779462814,1.2521250247955322],"min":[-0.3071250021457672,-0.28349998593330383,-0.023624999448657036],"type":"VEC3"},{"bufferView":1,"componentType":5126,"count":24,"max":[1,1,1],"min":[-1,-1,-1],"type":"VEC3"},{"bufferView":2,"componentType":5126,"count":24,"max":[0.8125,0.75],"min":[0.625,0.5],"type":"VEC2"},{"bufferView":3,"componentType":5123,"count":36,"max":[23],"min":[0],"type":"SCALAR"},{"bufferView":4,"componentType":5126,"count":24,"max":[0.04119874909520149,-0.43167126178741455,0.08651687204837799],"min":[-0.04119812324643135,-0.44300124049186707,-0.07518749684095383],"type":"VEC3"},{"bufferView":5,"componentType":5126,"count":24,"max":[1,1,1],"min":[-1,-1,-1],"type":"VEC3"},{"bufferView":6,"componentType":5126,"count":24,"max":[0.3960793614387512,1],"min":[0,0.8382956385612488],"type":"VEC2"},{"bufferView":7,"componentType":5123,"count":36,"max":[23],"min":[0],"type":"SCALAR"},{"bufferView":8,"componentType":5126,"count":24,"max":[0.47437500953674316,0.7149999737739563,0.5362499952316284],"min":[0.45375001430511475,0.6600000262260437,0.33000001311302185],"type":"VEC3"},{"bufferView":9,"componentType":5126,"count":24,"max":[1,1,1],"min":[-1,-1,-1],"type":"VEC3"},{"bufferView":10,"componentType":5126,"count":24,"max":[0.33125001192092896,1],"min":[0,0.793749988079071],"type":"VEC2"},{"bufferView":11,"componentType":5123,"count":36,"max":[23],"min":[0],"type":"SCALAR"},{"bufferView":12,"componentType":5126,"count":24,"max":[0.47602444887161255,-0.04904220253229141,0.8511447310447693],"min":[0.28702446818351746,-0.2380422055721283,-0.42460528016090393],"type":"VEC3"},{"bufferView":13,"componentType":5126,"count":24,"max":[1,1,1],"min":[-1,-1,-1],"type":"VEC3"},{"bufferView":14,"componentType":5126,"count":24,"max":[0.8125,0.75],"min":[0.625,0.5],"type":"VEC2"},{"bufferView":15,"componentType":5123,"count":36,"max":[23],"min":[0],"type":"SCALAR"},{"bufferView":16,"componentType":5126,"count":29,"max":[3.359999895095825],"min":[0],"type":"SCALAR"},{"bufferView":17,"componentType":5126,"count":29,"max":[0.26658686995506287,0.04336012899875641,0.180288165807724,1],"min":[-0.04861970990896225,-0.10734061896800995,-0.10876325517892838,0.9476039409637451],"type":"VEC4"},{"bufferView":18,"componentType":5126,"count":23,"max":[3.319999933242798],"min":[0],"type":"SCALAR"},{"bufferView":19,"componentType":5126,"count":23,"max":[0.05786285549402237,0.16875000298023224,0],"min":[-0.6000000238418579,-0.3499999940395355,-0.862500011920929],"type":"VEC3"},{"bufferView":20,"componentType":5126,"count":1,"max":[0],"min":[0],"type":"SCALAR"},{"bufferView":21,"componentType":5126,"count":1,"max":[1,1,1],"min":[1,1,1],"type":"VEC3"},{"bufferView":22,"componentType":5126,"count":35,"max":[1.840000033378601],"min":[0],"type":"SCALAR"},{"bufferView":23,"componentType":5126,"count":35,"max":[0.17519056797027588,0.14506255090236664,0,1],"min":[0,0,-0.27197620272636414,0.9415022134780884],"type":"VEC4"},{"bufferView":24,"componentType":5126,"count":28,"max":[1.840000033378601],"min":[0],"type":"SCALAR"},{"bufferView":25,"componentType":5126,"count":28,"max":[0.5523481369018555,1.40625,-0.015625],"min":[0.234375,0.9375,-0.15312500298023224],"type":"VEC3"},{"bufferView":26,"componentType":5126,"count":6,"max":[3.119999885559082],"min":[0],"type":"SCALAR"},{"bufferView":27,"componentType":5126,"count":6,"max":[0.041924722492694855,0.10047046095132828,0,1],"min":[0,0,-0.4689773917198181,0.8764748573303223],"type":"VEC4"},{"bufferView":28,"componentType":5126,"count":12,"max":[3.119999885559082],"min":[0],"type":"SCALAR"},{"bufferView":29,"componentType":5126,"count":12,"max":[0.9441168904304504,0.11124695837497711,1.615083932876587],"min":[0.592866837978363,-0.1750030368566513,0.16383397579193115],"type":"VEC3"},{"bufferView":30,"componentType":5126,"count":17,"max":[1.840000033378601],"min":[0],"type":"SCALAR"},{"bufferView":31,"componentType":5126,"count":17,"max":[0.33943426609039307,-0.013190552592277527,0.1569097340106964,0.9757579565048218],"min":[-0.04005059227347374,-0.21315141022205353,-0.6360933780670166,0.7680097222328186],"type":"VEC4"},{"bufferView":32,"componentType":5126,"count":33,"max":[1.840000033378601],"min":[0],"type":"SCALAR"},{"bufferView":33,"componentType":5126,"count":33,"max":[0.5084875226020813,0.8804086446762085,1.3764417171478271],"min":[-0.6915124654769897,-0.5320913791656494,0.2514416575431824],"type":"VEC3"},{"bufferView":34,"componentType":5126,"count":14,"max":[1.5199999809265137],"min":[0],"type":"SCALAR"},{"bufferView":35,"componentType":5126,"count":14,"max":[0.8803348541259766,0.014902359806001186,0.10045039653778076,1],"min":[-0.15727058053016663,-0.4105069041252136,-0.3946450352668762,-0.2154165804386139],"type":"VEC4"},{"bufferView":36,"componentType":5126,"count":18,"max":[1.5199999809265137],"min":[0],"type":"SCALAR"},{"bufferView":37,"componentType":5126,"count":18,"max":[-0.4738222062587738,0.28125,-0.4375],"min":[-1.5625,-4.193749904632568,-2.9375],"type":"VEC3"},{"bufferView":38,"componentType":5126,"count":8,"max":[1.0800000429153442],"min":[0],"type":"SCALAR"},{"bufferView":39,"componentType":5126,"count":8,"max":[1,1,1],"min":[-0.1249457448720932,-0.1249457448720932,-0.1249457448720932],"type":"VEC3"},{"bufferView":40,"componentType":5126,"count":4,"max":[2.880000114440918],"min":[0],"type":"SCALAR"},{"bufferView":41,"componentType":5126,"count":4,"max":[0,0,0,1],"min":[0,0,0,1],"type":"VEC4"},{"bufferView":42,"componentType":5126,"count":6,"max":[2.880000114440918],"min":[0],"type":"SCALAR"},{"bufferView":43,"componentType":5126,"count":6,"max":[-0.5,-0.5,-0.21875],"min":[-0.5,-0.5,-0.5],"type":"VEC3"}],"materials":[{"pbrMetallicRoughness":{"metallicFactor":0,"roughnessFactor":1},"alphaMode":"MASK","alphaCutoff":0.05,"doubleSided":true},{"pbrMetallicRoughness":{"metallicFactor":0,"roughnessFactor":1},"alphaMode":"MASK","alphaCutoff":0.05,"doubleSided":true}],"meshes":[{"primitives":[{"mode":4,"attributes":{"POSITION":0,"NORMAL":1,"TEXCOORD_0":2},"indices":3,"material":0}]},{"primitives":[{"mode":4,"attributes":{"POSITION":4,"NORMAL":5,"TEXCOORD_0":6},"indices":7,"material":1}]},{"primitives":[{"mode":4,"attributes":{"POSITION":8,"NORMAL":9,"TEXCOORD_0":10},"indices":11,"material":0}]},{"primitives":[{"mode":4,"attributes":{"POSITION":12,"NORMAL":13,"TEXCOORD_0":14},"indices":15,"material":0}]}],"animations":[{"name":"reload_empty_2","samplers":[{"input":16,"output":17,"interpolation":"LINEAR"},{"input":18,"output":19,"interpolation":"LINEAR"},{"input":20,"output":21,"interpolation":"LINEAR"},{"input":22,"output":23,"interpolation":"LINEAR"},{"input":24,"output":25,"interpolation":"LINEAR"},{"input":26,"output":27,"interpolation":"LINEAR"},{"input":28,"output":29,"interpolation":"LINEAR"},{"input":30,"output":31,"interpolation":"LINEAR"},{"input":32,"output":33,"interpolation":"LINEAR"},{"input":34,"output":35,"interpolation":"LINEAR"},{"input":36,"output":37,"interpolation":"LINEAR"},{"input":38,"output":39,"interpolation":"LINEAR"},{"input":40,"output":41,"interpolation":"LINEAR"},{"input":42,"output":43,"interpolation":"LINEAR"}],"channels":[{"sampler":0,"target":{"node":10,"path":"rotation"}},{"sampler":1,"target":{"node":10,"path":"translation"}},{"sampler":2,"target":{"node":10,"path":"scale"}},{"sampler":3,"target":{"node":7,"path":"rotation"}},{"sampler":4,"target":{"node":7,"path":"translation"}},{"sampler":5,"target":{"node":1,"path":"rotation"}},{"sampler":6,"target":{"node":1,"path":"translation"}},{"sampler":7,"target":{"node":9,"path":"rotation"}},{"sampler":8,"target":{"node":9,"path":"translation"}},{"sampler":9,"target":{"node":3,"path":"rotation"}},{"sampler":10,"target":{"node":3,"path":"translation"}},{"sampler":11,"target":{"node":3,"path":"scale"}},{"sampler":12,"target":{"node":5,"path":"rotation"}},{"sampler":13,"target":{"node":5,"path":"translation"}}]}]}